<svg width="18" height="18" viewBox="0 0 18 18" fill="none" xmlns="http://www.w3.org/2000/svg">
<path d="M13.97 6.005C13.598 5.936 13.246 5.716 12.541 5.275L10.5 4L13.914 0.586C14.289 0.210901 14.7976 0.000113275 15.328 0H18V2.672C17.9999 3.20239 17.7891 3.71101 17.414 4.086L16.279 5.026C15.639 5.556 15.319 5.821 14.959 5.939C14.6404 6.04347 14.3007 6.06616 13.971 6.005H13.97ZM1.355 11.146C1.53842 10.963 1.77871 10.8479 2.03629 10.8197C2.29386 10.7915 2.55335 10.852 2.772 10.991L7.5 14L7.25 14.25L7.823 14.823C7.93622 14.9363 7.99981 15.0899 7.99981 15.25C7.99981 15.4101 7.93622 15.5637 7.823 15.677L6.853 16.647C6.75924 16.7407 6.63208 16.7934 6.4995 16.7934C6.36692 16.7934 6.23976 16.7407 6.146 16.647L4.75 15.25L3 17V17.646C2.99988 17.7159 2.97905 17.7842 2.94014 17.8423C2.90123 17.9004 2.84599 17.9457 2.78138 17.9725C2.71678 17.9992 2.6457 18.0062 2.57711 17.9926C2.50853 17.979 2.44551 17.9454 2.396 17.896L0.104 15.604C0.0546194 15.5545 0.0210055 15.4915 0.00739837 15.4229C-0.00620873 15.3543 0.000800418 15.2832 0.0275419 15.2186C0.0542833 15.154 0.0995593 15.0988 0.157658 15.0599C0.215757 15.021 0.284077 15.0001 0.354 15H1L2.75 13.25L1.354 11.854C1.30744 11.8076 1.27049 11.7524 1.24529 11.6916C1.22008 11.6309 1.20711 11.5658 1.20711 11.5C1.20711 11.4342 1.22008 11.3691 1.24529 11.3084C1.27049 11.2476 1.30844 11.1924 1.355 11.146ZM2.672 0C3.20239 0.000113275 3.71101 0.210901 4.086 0.586L14.25 10.75L14.823 10.177C14.9363 10.0638 15.0899 10.0002 15.25 10.0002C15.4101 10.0002 15.5637 10.0638 15.677 10.177L16.647 11.147C16.7407 11.2408 16.7934 11.3679 16.7934 11.5005C16.7934 11.6331 16.7407 11.7602 16.647 11.854L15.25 13.25L17 15H17.646C17.7159 15.0001 17.7842 15.021 17.8423 15.0599C17.9004 15.0988 17.9457 15.154 17.9725 15.2186C17.9992 15.2832 18.0062 15.3543 17.9926 15.4229C17.979 15.4915 17.9454 15.5545 17.896 15.604L15.604 17.896C15.5547 17.9459 15.4916 17.9799 15.4229 17.9938C15.3541 18.0077 15.2828 18.0008 15.218 17.974C15.1532 17.9471 15.0978 17.9016 15.059 17.8432C15.0202 17.7848 14.9996 17.7161 15 17.646V17L13.25 15.25L11.854 16.646C11.8076 16.6926 11.7524 16.7295 11.6916 16.7547C11.6309 16.7799 11.5658 16.7929 11.5 16.7929C11.4342 16.7929 11.3691 16.7799 11.3084 16.7547C11.2476 16.7295 11.1924 16.6926 11.146 16.646L10.176 15.676C10.0631 15.5628 9.99968 15.4094 9.99968 15.2495C9.99968 15.0896 10.0631 14.9362 10.176 14.823L10.75 14.25L0.586 4.086C0.210901 3.71101 0.000113275 3.20239 0 2.672V0H2.672Z" fill="#7E828B"/>
</svg>
