<svg width="16" height="18" viewBox="0 0 16 18" fill="none" xmlns="http://www.w3.org/2000/svg">
<path d="M14.265 16C14.6151 16.0002 14.9592 15.9086 15.2628 15.7341C15.5664 15.5597 15.8189 15.3086 15.995 15.006C15.98 15.772 15.925 16.247 15.727 16.635C15.4874 17.1051 15.1051 17.4874 14.635 17.727C14.1 18 13.4 18 12 18H6.4C4.16 18 3.04 18 2.184 17.564C1.43139 17.1805 0.819488 16.5686 0.436 15.816C-1.19209e-07 14.96 0 13.84 0 11.6V6.4C0 4.16 -1.19209e-07 3.04 0.436 2.184C0.819488 1.43139 1.43139 0.819488 2.184 0.436C3.04 1.19209e-07 4.16 0 6.4 0H7.003L7 5.556C6.99991 5.63012 7.02041 5.7028 7.05921 5.76595C7.09802 5.82909 7.15361 5.88021 7.21977 5.91361C7.28594 5.947 7.36008 5.96136 7.43393 5.95507C7.50778 5.94878 7.57843 5.9221 7.638 5.878L9.262 4.676C9.33088 4.62501 9.4143 4.59749 9.5 4.59749C9.5857 4.59749 9.66912 4.62501 9.738 4.676L11.362 5.878C11.4216 5.9221 11.4922 5.94878 11.5661 5.95507C11.6399 5.96136 11.7141 5.947 11.7802 5.91361C11.8464 5.88021 11.902 5.82909 11.9408 5.76595C11.9796 5.7028 12.0001 5.63012 12 5.556V0C13.4 0 14.1 5.96046e-08 14.635 0.272C15.1053 0.511895 15.4875 0.894506 15.727 1.365C16 1.9 16 2.6 16 4V12C16 12.5304 15.7893 13.0391 15.4142 13.4142C15.0391 13.7893 14.5304 14 14 14H3C2.73478 14 2.48043 14.1054 2.29289 14.2929C2.10536 14.4804 2 14.7348 2 15C2 15.2652 2.10536 15.5196 2.29289 15.7071C2.48043 15.8946 2.73478 16 3 16H14.265Z" fill="#7E828B"/>
</svg>
