<svg width="22" height="24" viewBox="0 0 22 24" fill="none" xmlns="http://www.w3.org/2000/svg">
<path d="M9.36253 24C8.27208 24 7.42194 23.1715 7.53815 22.2215L8.36347 15.4745C8.37044 15.4143 8.36304 15.3536 8.34173 15.2961C8.32043 15.2386 8.28571 15.1858 8.23983 15.141C8.19395 15.0963 8.13795 15.0606 8.07547 15.0363C8.01298 15.012 7.94542 14.9996 7.87719 15H1.62671C1.48528 15.0002 1.34547 14.9733 1.21685 14.9212C1.08823 14.8691 0.97384 14.793 0.881506 14.698L0.232765 14.0295C0.0875926 13.8804 0.00540235 13.6912 0.000257101 13.4942C-0.00488815 13.2973 0.0673312 13.1049 0.204559 12.95L11.5587 0.0830016C11.5818 0.0570205 11.6113 0.0360449 11.6449 0.0216643C11.6785 0.00728378 11.7154 -0.00012429 11.7527 1.57744e-06H12.6181C13.7085 1.57744e-06 14.5587 0.828501 14.4425 1.7785L13.6171 8.526C13.6103 8.58608 13.6177 8.64677 13.639 8.70413C13.6603 8.76149 13.695 8.81424 13.7408 8.85894C13.7866 8.90365 13.8425 8.93931 13.9049 8.96361C13.9673 8.98791 14.0347 9.00031 14.1028 9H20.3578C20.6422 9 20.9124 9.108 21.098 9.2965L21.7619 9.9695C22.0666 10.278 22.0801 10.732 21.7952 11.0545L10.4214 23.917C10.3984 23.9429 10.369 23.9639 10.3354 23.9783C10.3019 23.9927 10.2651 24.0001 10.2279 24H9.36253Z" fill="url(#paint0_linear_166_2)"/>
<path fill-rule="evenodd" clip-rule="evenodd" d="M9.11206 15.546L8.2868 22.2935C8.21967 22.8405 8.70986 23.3335 9.36307 23.3335H9.98244L21.2033 10.6435C21.2335 10.6098 21.2493 10.5678 21.248 10.5248C21.2466 10.4818 21.2282 10.4406 21.1959 10.4085L20.5326 9.7355C20.5107 9.71367 20.4839 9.69621 20.4538 9.68432C20.4238 9.67242 20.3912 9.66634 20.3583 9.6665H14.1037C13.3749 9.6665 12.7893 9.11 12.8694 8.454L13.6947 1.7065C13.7618 1.1595 13.2716 0.6665 12.6184 0.6665H11.9991L0.797403 13.361C0.767407 13.3945 0.751651 13.4363 0.752889 13.4791C0.754126 13.5219 0.772277 13.5629 0.804172 13.595L1.45287 14.263C1.47467 14.2851 1.50156 14.3028 1.53173 14.3148C1.5619 14.3269 1.59464 14.3331 1.62774 14.333H7.87783C8.60607 14.333 9.19216 14.89 9.11206 15.546ZM7.53882 22.2215C7.42261 23.1715 8.27213 24 9.36307 24H10.2284C10.304 24 10.375 23.9695 10.4219 23.917L21.7956 11.0545C21.9336 10.8986 22.0058 10.7047 21.9996 10.5066C21.9935 10.3084 21.9093 10.1184 21.7617 9.9695L21.0984 9.2965C21.006 9.20327 20.8923 9.12859 20.7647 9.07745C20.6372 9.02632 20.4988 8.99991 20.3588 9H14.1037C14.0354 9.00045 13.9679 8.98815 13.9054 8.96391C13.8429 8.93968 13.7868 8.90403 13.7409 8.85931C13.695 8.8146 13.6602 8.7618 13.6388 8.70437C13.6174 8.64694 13.61 8.58616 13.6169 8.526L14.4421 1.7785C14.5589 0.8285 13.7088 2.50259e-07 12.6184 2.50259e-07H11.7531C11.7159 -4.97554e-05 11.6791 0.00739481 11.6456 0.0217725C11.6121 0.0361502 11.5827 0.0570857 11.5596 0.0830003L0.204546 12.95C0.0673273 13.1049 -0.00488785 13.2973 0.000257084 13.4942C0.00540202 13.6912 0.0875871 13.8804 0.232751 14.0295L0.881452 14.698C1.0676 14.8895 1.34062 15 1.62718 15H7.87727C7.94547 14.9995 8.01301 15.0118 8.07549 15.0361C8.13797 15.0603 8.19398 15.096 8.23987 15.1407C8.28575 15.1854 8.32048 15.2382 8.34178 15.2957C8.36309 15.3531 8.37049 15.4139 8.36351 15.474L7.53825 22.2215H7.53882Z" fill="url(#paint1_linear_166_2)"/>
<defs>
<linearGradient id="paint0_linear_166_2" x1="18.4161" y1="15.2975" x2="7.12045" y2="4.4518" gradientUnits="userSpaceOnUse">
<stop stop-color="#CE0F50"/>
<stop offset="1" stop-color="#FE112D"/>
</linearGradient>
<linearGradient id="paint1_linear_166_2" x1="11.0006" y1="2.50259e-07" x2="11.0006" y2="24" gradientUnits="userSpaceOnUse">
<stop stop-color="#FF003D"/>
<stop offset="1" stop-color="#FF003D" stop-opacity="0"/>
</linearGradient>
</defs>
</svg>
