<svg width="18" height="18" viewBox="0 0 18 18" fill="none" xmlns="http://www.w3.org/2000/svg">
<path fill-rule="evenodd" clip-rule="evenodd" d="M17.9989 1.75039C17.9989 0.782951 17.2148 0 16.2486 0H15.2475C14.2823 0 13.4994 0.782951 13.4994 1.75039V16.2507C13.4994 17.2159 14.2823 18 15.2497 18H16.2508C17.216 18 18 17.2159 18 16.2496V1.74927L17.9989 1.75039ZM6.74916 7.37504C6.74916 6.4076 7.53206 5.62465 8.49944 5.62465H9.49831C10.4657 5.62465 11.2486 6.4076 11.2486 7.37504V16.2507C11.2486 17.2159 10.4646 18 9.49831 18H8.49944C7.53206 18 6.74916 17.2159 6.74916 16.2496V7.37504ZM0 12.9997C0 12.0322 0.782902 11.2493 1.75028 11.2493H2.74916C3.71654 11.2493 4.50056 12.0322 4.50056 12.9997V16.2507C4.50056 17.2159 3.71654 18 2.75028 18H1.75141C0.784027 18 0.00112478 17.2159 0.00112478 16.2496V12.9986L0 12.9997Z" fill="#7E828B"/>
</svg>
